<?xml version="1.0" standalone="no"?>
<svg version="1.0" xmlns="http://www.w3.org/2000/svg"
 width="240" height="60" viewBox="0 0 240 60"
 preserveAspectRatio="xMidYMid meet">
<defs>
  <linearGradient id="treeGradientFull" x1="0%" y1="0%" x2="100%" y2="100%">
    <stop offset="0%" style="stop-color:#3B82F6;stop-opacity:1" />
    <stop offset="50%" style="stop-color:#8B5CF6;stop-opacity:1" />
    <stop offset="100%" style="stop-color:#06B6D4;stop-opacity:1" />
  </linearGradient>
  <linearGradient id="textGradientFull" x1="0%" y1="0%" x2="100%" y2="100%">
    <stop offset="0%" style="stop-color:#1E3A8A;stop-opacity:1" />
    <stop offset="50%" style="stop-color:#3B82F6;stop-opacity:1" />
    <stop offset="100%" style="stop-color:#60A5FA;stop-opacity:1" />
  </linearGradient>
  <linearGradient id="workTextGradient" x1="0%" y1="0%" x2="100%" y2="0%">
    <stop offset="0%" style="stop-color:#E2E8F0;stop-opacity:1" />
    <stop offset="100%" style="stop-color:#F8FAFC;stop-opacity:1" />
  </linearGradient>
</defs>

<!-- "Work" text matching 3S serif font style -->
<text x="30" y="44"
      font-family="Georgia, 'Times New Roman', Times, serif"
      font-size="32"
      font-weight="200"
      letter-spacing="0"
      fill="url(#textGradientFull)">Work</text>

<!-- 3S Icon - scaled larger for bolder appearance -->
<g transform="translate(90, -2) scale(0.22)">
  <!-- Scaled content from app-icon.svg -->
  <g transform="translate(150,150) scale(1.4) translate(-150,-150)">
    <g transform="translate(0.000000,300.000000) scale(0.100000,-0.100000)"
    fill="url(#treeGradientFull)" stroke="none">
    <path d="M1367 2213 c-16 -15 -6 -70 16 -91 34 -32 47 -28 47 16 0 27 -7 45
    -23 60 -25 24 -30 26 -40 15z"/>
    <path d="M1643 2190 c-39 -23 -53 -48 -53 -93 0 -19 -6 -40 -14 -46 -8 -6 -20
    -26 -27 -43 -12 -30 -13 -30 -21 -9 -5 15 -3 30 7 44 18 26 19 67 3 102 -15
    33 -24 32 -49 -7 -23 -37 -20 -89 6 -118 9 -9 15 -35 15 -60 l0 -44 -29 45
    c-15 24 -58 70 -95 103 -55 48 -76 60 -112 64 -49 5 -52 0 -25 -44 19 -31 80
    -62 99 -50 23 14 99 -77 120 -144 6 -19 14 -55 17 -80 l7 -45 -38 37 c-35 33
    -64 93 -64 131 0 21 -43 56 -78 63 l-32 6 11 -31 c6 -18 22 -39 36 -49 83 -59
    84 -69 4 -45 -48 14 -55 19 -72 59 -21 47 -59 74 -104 74 -29 0 -30 -2 -10
    -40 17 -34 43 -50 78 -50 14 0 27 -6 30 -14 8 -19 -29 -27 -85 -20 -38 5 -48
    3 -74 -20 -24 -22 -27 -27 -14 -36 26 -17 76 -11 106 13 33 25 100 29 149 7
    l30 -13 -63 -11 c-47 -8 -69 -17 -83 -35 -10 -12 -16 -27 -13 -32 14 -23 90 2
    99 32 8 25 41 33 76 19 65 -27 115 -184 103 -320 -7 -68 -7 -68 27 -99 19 -17
    36 -31 39 -31 3 0 2 64 -2 142 -9 175 2 246 45 295 40 45 76 63 105 52 12 -5
    25 -16 28 -24 12 -31 94 -59 108 -36 4 5 -5 23 -19 39 -20 25 -35 31 -86 36
    -65 8 -67 16 -10 35 63 21 151 8 151 -22 0 -29 87 -49 120 -27 25 17 -32 60
    -80 60 -21 0 -51 5 -67 11 l-28 11 50 15 c49 14 95 51 95 77 0 19 -50 27 -80
    13 -14 -7 -32 -26 -40 -44 -8 -17 -24 -37 -35 -44 -28 -17 -85 -29 -85 -17 0
    11 46 58 57 58 13 0 39 51 47 89 6 33 6 33 -26 27 -47 -9 -79 -49 -77 -95 3
    -39 -21 -85 -52 -102 -24 -12 -25 3 -3 41 17 28 13 100 -6 100 -28 0 -54 -90
    -30 -105 20 -13 9 -44 -26 -73 -20 -17 -45 -43 -56 -59 l-20 -28 5 75 c5 94
    35 157 106 221 46 42 51 51 51 88 0 47 -3 48 -47 21z m-117 -442 c-9 -45 -23
    -57 -32 -24 -4 16 -1 32 6 41 21 25 33 17 26 -17z"/>
    <path fill="url(#textGradientFull)" d="M1718 1730 c-89 -27 -138 -88 -138 -169 0 -106 47 -151 222 -215 26
    -10 61 -33 78 -52 25 -29 30 -43 30 -87 0 -96 -65 -155 -159 -144 -56 6 -111
    59 -111 107 0 52 -47 34 -56 -21 -4 -25 0 -43 18 -69 68 -100 231 -109 327
    -19 80 76 65 253 -28 314 -20 13 -75 40 -124 61 -98 41 -127 69 -127 123 0
    117 154 151 232 51 l23 -30 34 21 34 20 -34 36 c-60 62 -156 94 -221 73z"/>
    <path fill="url(#textGradientFull)" d="M1210 1698 c-31 -17 -51 -36 -67 -67 -26 -49 -22 -58 22 -63 24 -2
    31 1 33 18 5 37 47 67 91 67 52 0 86 -23 101 -69 23 -68 -8 -139 -63 -149 -30
    -6 -34 -10 -33 -36 1 -26 4 -29 34 -29 71 0 143 -48 163 -107 34 -103 -57
    -212 -179 -213 -64 0 -135 40 -153 87 -7 20 -11 20 -43 11 -20 -6 -36 -14 -36
    -18 0 -25 66 -91 114 -115 49 -24 65 -27 134 -24 66 3 86 9 128 34 148 92 148
    309 -1 379 l-35 17 20 37 c26 49 26 123 -1 178 -37 78 -141 106 -229 62z"/>
    <path d="M1492 1023 l-62 -63 -76 0 c-75 0 -144 -20 -144 -42 0 -6 7 -7 18 -2
    9 4 51 10 92 11 69 3 73 2 56 -12 -11 -8 -29 -15 -41 -15 -24 0 -65 -26 -65
    -42 0 -6 8 -4 18 5 10 10 32 17 48 17 16 1 60 20 99 44 39 24 71 43 73 41 9
    -8 -15 -38 -42 -52 -46 -23 -76 -54 -76 -77 1 -19 3 -18 21 7 23 30 79 64 79
    47 0 -5 11 -20 25 -32 16 -14 23 -28 19 -40 -3 -10 -1 -18 5 -18 6 0 14 11 17
    26 5 18 0 32 -16 50 -21 21 -22 27 -10 49 l13 25 11 -22 c6 -13 23 -28 36 -35
    14 -7 33 -22 43 -34 22 -27 31 -20 18 13 -5 14 -23 30 -39 37 -17 7 -32 21
    -35 32 -3 10 -4 19 -3 19 18 0 77 -28 96 -46 27 -25 114 -50 107 -31 -2 6 -17
    15 -35 21 -17 6 -37 17 -44 25 -11 11 0 13 70 8 45 -4 82 -3 82 1 0 13 -87 32
    -144 32 -64 0 -116 30 -131 77 -6 18 -13 33 -15 35 -3 2 -33 -25 -68 -59z m76
    -30 c5 -16 -22 -27 -44 -19 -13 5 -14 9 -4 22 15 17 41 15 48 -3z"/>
    </g>
  </g>
</g>
</svg>
